<svg width="291" height="338" viewBox="0 0 291 338" fill="none" xmlns="http://www.w3.org/2000/svg">
<path fill-rule="evenodd" clip-rule="evenodd" d="M122.85 172.223C135.08 212.42 172.444 241.67 216.64 241.67C242.302 241.67 265.66 231.809 283.132 215.67C285.056 213.893 288.232 214.714 288.781 217.275C290.235 224.05 291 231.081 291 238.29C291 293.358 246.358 338 191.29 338C136.222 338 91.5801 293.358 91.5801 238.29C91.5801 211.792 101.916 187.708 118.777 169.85C78.5795 182.08 49.3295 219.445 49.3295 263.641C49.3295 289.302 59.1906 312.66 75.3301 330.133C77.1069 332.056 76.2854 335.233 73.725 335.782C66.9498 337.235 59.9191 338.001 52.7096 338.001C-2.35868 338.001 -47.0004 293.359 -47.0004 238.291C-47.0004 183.222 -2.3587 138.581 52.7096 138.581C79.2077 138.581 103.292 148.917 121.149 165.778C108.919 125.58 71.555 96.3299 27.359 96.3299C1.69751 96.3299 -21.6608 106.191 -39.1333 122.331C-41.0568 124.107 -44.2331 123.286 -44.7823 120.726C-46.2358 113.95 -47.001 106.92 -47.001 99.7101C-47.001 44.6418 -2.35929 9.95239e-05 52.709 9.71167e-05C107.777 9.47096e-05 152.419 44.6418 152.419 99.7101C152.419 126.208 142.083 150.292 125.222 168.15C165.42 155.92 194.67 118.555 194.67 74.3595C194.67 48.698 184.809 25.3397 168.669 7.86719C166.892 5.94366 167.714 2.76742 170.274 2.21815C177.049 0.764649 184.08 -0.000488281 191.29 -0.000488281C246.358 -0.000488281 291 44.6412 291 99.7095C291 154.778 246.358 199.42 191.29 199.42C164.791 199.42 140.707 189.083 122.85 172.223Z" fill="url(#paint0_linear_151_2531)"/>
<defs>
<linearGradient id="paint0_linear_151_2531" x1="-47.001" y1="-0.000488281" x2="317.862" y2="32.0313" gradientUnits="userSpaceOnUse">
<stop stop-color="#B78BF2"/>
<stop offset="1" stop-color="#A8FF8A"/>
</linearGradient>
</defs>
</svg>
