<svg width="170" height="200" viewBox="0 0 170 200" fill="none" xmlns="http://www.w3.org/2000/svg">
<path d="M144.603 4.11868C165.027 9.662 171.436 26.2922 169.74 41.2592C168.059 56.0912 152.224 69.305 129.005 68.4484C135.328 68.9419 155.224 76.2709 159.267 93.9208C163.457 112.214 154.086 123.511 142.509 129.398C124.343 138.635 104.282 138.609 87 137.5C97.6213 143.411 112.831 154.491 114.753 171.527C116.676 188.564 102.185 204.787 72.8589 198.69C43.5325 192.592 -12.1328 167.5 2.68486 124.409C8.62671 107.13 28.0914 100.614 39.3427 98.3555C44.2134 97.3777 58.7191 95.0295 79.1426 95.0295C54.6561 92.6732 16.6166 80.6167 14.7298 53.4544C10.9562 -0.870094 108.061 -5.79967 144.603 4.11868Z" fill="#A8FF8A"/>
</svg>
